<svg width="22" height="24" viewBox="0 0 22 24" fill="none" xmlns="http://www.w3.org/2000/svg">
<path d="M15.5215 10.3125C15.5215 9.79472 15.1018 9.375 14.584 9.375H4.92774C4.40995 9.375 3.99023 9.79472 3.99023 10.3125C3.99023 10.8303 4.40995 11.25 4.92774 11.25H14.584C15.1018 11.25 15.5215 10.8303 15.5215 10.3125Z" fill="#F3F3F3"/>
<path d="M4.92773 13.125C4.40995 13.125 3.99023 13.5447 3.99023 14.0625C3.99023 14.5803 4.40995 15 4.92773 15H10.7923C11.3101 15 11.7298 14.5803 11.7298 14.0625C11.7298 13.5447 11.3101 13.125 10.7923 13.125H4.92773Z" fill="#F3F3F3"/>
<path d="M7.13103 22.125H3.99561C2.96173 22.125 2.12061 21.2839 2.12061 20.25V3.75C2.12061 2.71613 2.96173 1.875 3.99561 1.875H15.5217C16.5555 1.875 17.3967 2.71613 17.3967 3.75V9.51562C17.3967 10.0334 17.8164 10.4531 18.3342 10.4531C18.8519 10.4531 19.2717 10.0334 19.2717 9.51562V3.75C19.2717 1.68225 17.5894 0 15.5217 0H3.99561C1.92786 0 0.245605 1.68225 0.245605 3.75V20.25C0.245605 22.3177 1.92786 24 3.99561 24H7.13103C7.64881 24 8.06853 23.5803 8.06853 23.0625C8.06853 22.5447 7.64881 22.125 7.13103 22.125Z" fill="#F3F3F3"/>
<path d="M20.932 13.5738C19.8354 12.4772 18.0512 12.4771 16.9553 13.573L11.8083 18.7086C11.6989 18.8177 11.6183 18.9521 11.5734 19.0998L10.4525 22.79C10.3531 23.1172 10.4397 23.4725 10.6785 23.7172C10.8573 23.9006 11.1003 24.0001 11.3496 24.0001C11.433 24.0001 11.5172 23.9889 11.5998 23.966L15.3838 22.9178C15.5395 22.8747 15.6814 22.7921 15.7958 22.6779L20.932 17.5513C22.0286 16.4547 22.0286 14.6705 20.932 13.5738ZM14.6457 21.1767L12.742 21.704L13.2991 19.8699L16.772 16.4046L18.0981 17.7307L14.6457 21.1767ZM19.6069 16.2249L19.4253 16.4062L18.0994 15.0803L18.2804 14.8997C18.646 14.5342 19.2407 14.5342 19.6062 14.8997C19.9718 15.2652 19.9718 15.86 19.6069 16.2249Z" fill="#F3F3F3"/>
<path d="M14.584 5.625H4.92774C4.40995 5.625 3.99023 6.04472 3.99023 6.5625C3.99023 7.08028 4.40995 7.5 4.92774 7.5H14.584C15.1018 7.5 15.5215 7.08028 15.5215 6.5625C15.5215 6.04472 15.1018 5.625 14.584 5.625Z" fill="#F3F3F3"/>
</svg>
