<svg width="22" height="22" viewBox="0 0 22 22" fill="none" xmlns="http://www.w3.org/2000/svg">
<path d="M11.4241 16.8396L16.2737 19.8752C16.8936 20.2632 17.6632 19.6861 17.4793 18.9712L16.0782 13.5256C16.0387 13.3739 16.0434 13.2143 16.0916 13.0652C16.1399 12.916 16.2298 12.7833 16.351 12.6824L20.6998 9.10625C21.2712 8.63636 20.9763 7.69942 20.2421 7.65234L14.5629 7.28818C14.4099 7.27738 14.2632 7.22388 14.1398 7.13389C14.0164 7.04389 13.9215 6.92113 13.866 6.77988L11.7479 1.50994C11.6903 1.36001 11.5879 1.23094 11.4543 1.13986C11.3208 1.04878 11.1623 1 11 1C10.8377 1 10.6792 1.04878 10.5457 1.13986C10.4121 1.23094 10.3097 1.36001 10.2521 1.50994L8.13402 6.77988C8.07853 6.92113 7.98356 7.04389 7.86018 7.13389C7.7368 7.22388 7.59008 7.27738 7.43711 7.28818L1.75789 7.65234C1.02375 7.69942 0.728817 8.63636 1.30023 9.10625L5.64901 12.6824C5.7702 12.7833 5.8601 12.916 5.90837 13.0652C5.95663 13.2143 5.96131 13.3739 5.92185 13.5256L4.62244 18.5758C4.40171 19.4337 5.32528 20.1262 6.06916 19.6606L10.5759 16.8396C10.7026 16.7599 10.8497 16.7175 11 16.7175C11.1503 16.7175 11.2974 16.7599 11.4241 16.8396V16.8396Z" stroke="#F3F3F3" stroke-width="2" stroke-linecap="round" stroke-linejoin="round"/>
</svg>
