<svg width="1041" height="278" viewBox="0 0 1041 278" fill="none" xmlns="http://www.w3.org/2000/svg">
<path d="M33.2912 116.335H57.2654L79.3648 40.2742H80.2738L102.43 116.335H126.404L159.695 0H132.824L113.565 81.0029H112.542L91.3519 0H68.3435L47.0962 80.8325H46.1305L26.8716 0H0L33.2912 116.335Z" fill="#F3F3F3"/>
<path d="M194.802 118.039C216.39 118.039 230.933 107.53 234.342 91.3412L211.959 89.8643C209.516 96.5104 203.267 99.9755 195.199 99.9755C183.099 99.9755 175.429 91.9661 175.429 78.9579V78.9011H234.853V72.255C234.853 42.6032 216.901 27.9477 193.836 27.9477C168.157 27.9477 151.512 46.1819 151.512 73.1071C151.512 100.771 167.93 118.039 194.802 118.039ZM175.429 63.9048C175.94 53.964 183.496 46.0114 194.234 46.0114C204.744 46.0114 212.015 53.5096 212.072 63.9048H175.429Z" fill="#F3F3F3"/>
<path d="M369.447 0H344.961V73.1639H343.939L293.718 0H272.13V116.335H296.729V43.1144H297.581L348.2 116.335H369.447V0Z" fill="#F3F3F3"/>
<path d="M421.085 118.039C442.673 118.039 457.217 107.53 460.626 91.3412L438.242 89.8643C435.799 96.5104 429.55 99.9755 421.483 99.9755C409.382 99.9755 401.713 91.9661 401.713 78.9579V78.9011H461.137V72.255C461.137 42.6032 443.185 27.9477 420.119 27.9477C394.441 27.9477 377.795 46.1819 377.795 73.1071C377.795 100.771 394.214 118.039 421.085 118.039ZM401.713 63.9048C402.224 53.964 409.78 46.0114 420.517 46.0114C431.027 46.0114 438.299 53.5096 438.356 63.9048H401.713Z" fill="#F3F3F3"/>
<path d="M508.699 118.039C530.287 118.039 544.831 107.53 548.239 91.3412L525.856 89.8643C523.413 96.5104 517.164 99.9755 509.097 99.9755C496.996 99.9755 489.326 91.9661 489.326 78.9579V78.9011H548.751V72.255C548.751 42.6032 530.798 27.9477 507.733 27.9477C482.055 27.9477 465.409 46.1819 465.409 73.1071C465.409 100.771 481.827 118.039 508.699 118.039ZM489.326 63.9048C489.838 53.964 497.394 46.0114 508.131 46.0114C518.641 46.0114 525.913 53.5096 525.969 63.9048H489.326Z" fill="#F3F3F3"/>
<path d="M588.7 117.755C602.789 117.755 610.118 109.632 613.47 102.361H614.492V116.335H638.353V0H614.208V43.7393H613.47C610.231 36.6387 603.244 27.9477 588.643 27.9477C569.498 27.9477 553.307 42.8304 553.307 72.8231C553.307 102.02 568.816 117.755 588.7 117.755ZM596.37 98.4986C584.496 98.4986 578.02 87.933 578.02 72.7094C578.02 57.5995 584.382 47.2043 596.37 47.2043C608.129 47.2043 614.719 57.1451 614.719 72.7094C614.719 88.2738 608.016 98.4986 596.37 98.4986Z" fill="#F3F3F3"/>
<path d="M679.734 0V116.335H703.594V40.331H704.56L734.67 115.767H750.918L781.028 40.615H781.993V116.335H805.854V0H775.517L743.476 78.1627H742.112L710.071 0H679.734Z" fill="#F3F3F3"/>
<path d="M857.095 118.039C883.568 118.039 900.044 99.9187 900.044 73.0503C900.044 46.0114 883.568 27.9477 857.095 27.9477C830.621 27.9477 814.146 46.0114 814.146 73.0503C814.146 99.9187 830.621 118.039 857.095 118.039ZM857.208 99.2938C844.994 99.2938 838.745 88.1034 838.745 72.8799C838.745 57.6563 844.994 46.4091 857.208 46.4091C869.195 46.4091 875.445 57.6563 875.445 72.8799C875.445 88.1034 869.195 99.2938 857.208 99.2938Z" fill="#F3F3F3"/>
<path d="M907.781 116.335H931.983V66.9722C931.983 56.2362 939.823 48.8517 950.503 48.8517C953.855 48.8517 958.457 49.4197 960.729 50.1582V28.6861C958.57 28.1749 955.559 27.8341 953.116 27.8341C943.345 27.8341 935.335 33.5145 932.153 44.3073H931.244V29.0838H907.781V116.335Z" fill="#F3F3F3"/>
<path d="M1000.95 118.039C1022.54 118.039 1037.08 107.53 1040.49 91.3412L1018.11 89.8643C1015.66 96.5104 1009.41 99.9755 1001.35 99.9755C989.245 99.9755 981.576 91.9661 981.576 78.9579V78.9011H1041V72.255C1041 42.6032 1023.05 27.9477 999.982 27.9477C974.304 27.9477 957.658 46.1819 957.658 73.1071C957.658 100.771 974.077 118.039 1000.95 118.039ZM981.576 63.9048C982.087 53.964 989.643 46.0114 1000.38 46.0114C1010.89 46.0114 1018.16 53.5096 1018.22 63.9048H981.576Z" fill="#F3F3F3"/>
<path d="M109.759 200.689C106.52 173.821 86.1821 158.37 59.2538 158.37C28.5191 158.37 5.05617 180.069 5.05617 218.128C5.05617 256.074 28.1214 277.886 59.2538 277.886C89.0795 277.886 107.089 258.062 109.759 236.647L84.8755 236.533C82.5462 248.973 72.7748 256.13 59.6514 256.13C41.9832 256.13 29.9962 243.009 29.9962 218.128C29.9962 193.93 41.8128 180.126 59.8219 180.126C73.2861 180.126 83.0007 187.908 84.8755 200.689H109.759Z" fill="#F3F3F3"/>
<path d="M174.904 239.146C174.961 250.848 166.95 256.982 158.258 256.982C149.112 256.982 143.203 250.564 143.146 240.282V189.045H118.945V244.599C119.002 264.992 130.932 277.432 148.487 277.432C161.61 277.432 171.041 270.672 174.961 260.447H175.869V276.296H199.105V189.045H174.904V239.146Z" fill="#F3F3F3"/>
<path d="M234.666 159.961H210.464V276.296H234.666V159.961Z" fill="#F3F3F3"/>
<path d="M292.468 189.045H276.05V168.141H251.848V189.045H239.918V207.222H251.848V252.665C251.735 269.763 263.381 278.227 280.936 277.489C287.185 277.262 291.616 276.012 294.059 275.217L290.253 257.21C289.06 257.437 286.503 258.005 284.231 258.005C279.402 258.005 276.05 256.187 276.05 249.484V207.222H292.468V189.045Z" fill="#F3F3F3"/>
<path d="M300.234 276.296H324.436V189.045H300.234V276.296ZM312.392 177.797C319.607 177.797 325.515 172.287 325.515 165.528C325.515 158.825 319.607 153.315 312.392 153.315C305.234 153.315 299.325 158.825 299.325 165.528C299.325 172.287 305.234 177.797 312.392 177.797Z" fill="#F3F3F3"/>
<path d="M408.428 213.925C406.269 197.849 393.316 187.908 371.273 187.908C348.947 187.908 334.233 198.247 334.29 215.061C334.233 228.126 342.47 236.59 359.514 239.998L374.625 243.009C382.238 244.542 385.703 247.326 385.817 251.7C385.703 256.869 380.079 260.561 371.614 260.561C362.979 260.561 357.241 256.869 355.764 249.768L331.96 251.018C334.233 267.718 348.435 278 371.557 278C394.168 278 410.359 266.469 410.416 249.257C410.359 236.647 402.122 229.092 385.192 225.626L369.399 222.445C361.275 220.685 358.264 217.901 358.321 213.698C358.264 208.472 364.172 205.063 371.671 205.063C380.079 205.063 385.078 209.665 386.271 215.288L408.428 213.925Z" fill="#F3F3F3"/>
<path d="M464.071 189.045H447.653V168.141H423.451V189.045H411.521V207.222H423.451V252.665C423.338 269.763 434.984 278.227 452.539 277.489C458.788 277.262 463.219 276.012 465.662 275.217L461.856 257.21C460.662 257.437 458.106 258.005 455.834 258.005C451.005 258.005 447.653 256.187 447.653 249.484V207.222H464.071V189.045Z" fill="#F3F3F3"/>
<path d="M543.192 213.925C541.033 197.849 528.08 187.908 506.037 187.908C483.711 187.908 468.997 198.247 469.053 215.061C468.997 228.126 477.234 236.59 494.277 239.998L509.389 243.009C517.002 244.542 520.467 247.326 520.581 251.7C520.467 256.869 514.843 260.561 506.378 260.561C497.743 260.561 492.005 256.869 490.528 249.768L466.724 251.018C468.997 267.718 483.199 278 506.321 278C528.932 278 545.123 266.469 545.18 249.257C545.123 236.647 536.886 229.092 519.956 225.626L504.163 222.445C496.039 220.685 493.028 217.901 493.084 213.698C493.028 208.472 498.936 205.063 506.435 205.063C514.843 205.063 519.842 209.665 521.035 215.288L543.192 213.925Z" fill="#F3F3F3"/>
<path d="M566.567 277.773C573.838 277.773 580.144 271.695 580.201 264.14C580.144 256.698 573.838 250.62 566.567 250.62C559.068 250.62 552.875 256.698 552.932 264.14C552.875 271.695 559.068 277.773 566.567 277.773Z" fill="#F3F3F3"/>
</svg>
